<svg width="169" height="217" viewBox="0 0 169 217" fill="none" xmlns="http://www.w3.org/2000/svg">
<path d="M56.4037 112.857C87.5547 112.857 112.807 87.5935 112.807 56.4287C112.807 25.264 87.5547 0 56.4037 0C25.2528 0 0 25.264 0 56.4287C0 87.5935 25.2528 112.857 56.4037 112.857Z" fill="#F0F0F0"/>
<path d="M158.152 62.5826V190.539C158.152 193.197 157.104 195.747 155.235 197.636C153.367 199.526 150.829 200.601 148.172 200.629C148.135 200.633 148.098 200.634 148.062 200.633H133.176C121.265 200.633 109.842 195.9 101.42 187.474C92.9981 179.048 88.2666 167.62 88.2666 155.704V62.5826C88.2666 59.9053 89.3297 57.3378 91.2219 55.4447C93.1142 53.5516 95.6806 52.488 98.3566 52.488H104.388C101.594 60.6433 139.52 64.0767 141.602 52.488H148.062C150.738 52.488 153.304 53.5516 155.196 55.4447C157.089 57.3378 158.152 59.9054 158.152 62.5826Z" fill="#FCA311"/>
<path d="M113.977 42.9198C113.977 42.5691 114.116 42.2329 114.364 41.9849C114.612 41.7369 114.948 41.5973 115.299 41.5969H124.291C124.641 41.5979 124.976 41.7378 125.223 41.9857C125.471 42.2337 125.609 42.5696 125.609 42.9198C125.609 43.27 125.471 43.606 125.223 43.8539C124.976 44.1019 124.641 44.2418 124.291 44.2428H115.299C114.948 44.2424 114.612 44.1029 114.364 43.8549C114.116 43.6069 113.977 43.2706 113.977 42.9198Z" fill="#3F3D56"/>
<path d="M151.151 216.863H94.287C89.8752 216.858 85.6455 215.103 82.5258 211.982C79.4062 208.861 77.6514 204.63 77.6463 200.216V110.769C77.3341 110.545 77.0798 110.249 76.9045 109.907C76.7293 109.565 76.6382 109.186 76.6386 108.801V99.8054C76.6382 99.4209 76.7293 99.0418 76.9045 98.6996C77.0798 98.3574 77.3341 98.062 77.6463 97.8378V95.4234C77.3341 95.1992 77.0798 94.9037 76.9045 94.5615C76.7293 94.2193 76.6382 93.8403 76.6386 93.4558V84.4594C76.6382 84.0749 76.7293 83.6958 76.9045 83.3536C77.0798 83.0115 77.3341 82.716 77.6463 82.4918V78.1282C77.2608 77.921 76.9387 77.6129 76.7146 77.2368C76.4906 76.8608 76.3728 76.4308 76.374 75.993V66.9972C76.3728 66.5593 76.4905 66.1294 76.7146 65.7532C76.9387 65.377 77.2608 65.0688 77.6463 64.8616V52.9046C77.6514 48.4909 79.4063 44.2595 82.5259 41.1386C85.6455 38.0177 89.8751 36.2622 94.2869 36.2572H151.151C155.562 36.2622 159.792 38.0177 162.912 41.1386C166.031 44.2596 167.786 48.491 167.791 52.9047V78.9683C168.09 79.1558 168.338 79.4165 168.509 79.7258C168.68 80.0351 168.77 80.3828 168.77 80.7365V97.8897C168.77 98.2434 168.68 98.5912 168.509 98.9006C168.338 99.21 168.091 99.4708 167.791 99.6584V200.216C167.786 204.63 166.031 208.861 162.912 211.982C159.792 215.103 155.562 216.858 151.151 216.863ZM94.2869 38.4701C90.4616 38.4744 86.7942 39.9965 84.0892 42.7026C81.3842 45.4087 79.8626 49.0777 79.8582 52.9047V66.7439L78.7943 66.785C78.739 66.7869 78.6866 66.81 78.6478 66.8495C78.6091 66.889 78.5869 66.9419 78.5859 66.9973V75.993C78.587 76.0483 78.6093 76.1011 78.648 76.1405C78.6868 76.18 78.7391 76.2032 78.7943 76.2053L79.8582 76.2459V84.0455L79.0168 84.253C78.9702 84.2642 78.9287 84.2906 78.8986 84.3279C78.8685 84.3652 78.8516 84.4115 78.8505 84.4594V93.4557C78.8516 93.5037 78.8685 93.5499 78.8986 93.5872C78.9287 93.6245 78.9702 93.6509 79.0168 93.6621L79.8582 93.8696V99.3915L79.0168 99.599C78.9702 99.6102 78.9287 99.6366 78.8986 99.6739C78.8685 99.7112 78.8516 99.7574 78.8505 99.8054V108.801C78.8515 108.849 78.8684 108.896 78.8985 108.933C78.9286 108.97 78.9701 108.997 79.0168 109.008L79.8582 109.216V200.216C79.8626 204.043 81.3842 207.712 84.0892 210.418C86.7942 213.124 90.4616 214.646 94.2869 214.65H151.151C154.976 214.646 158.643 213.124 161.348 210.418C164.053 207.712 165.575 204.043 165.579 200.216V97.7637H166.559V80.8629H165.579V52.9046C165.575 49.0777 164.053 45.4087 161.348 42.7027C158.643 39.9966 154.976 38.4744 151.151 38.4701L94.2869 38.4701Z" fill="#3F3D56"/>
<path d="M129.316 44.2428C130.046 44.2428 130.638 43.6505 130.638 42.9198C130.638 42.1892 130.046 41.5969 129.316 41.5969C128.586 41.5969 127.994 42.1892 127.994 42.9198C127.994 43.6505 128.586 44.2428 129.316 44.2428Z" fill="#3F3D56"/>
<path d="M123.573 185.888C128.78 185.888 133 181.665 133 176.456C133 171.247 128.78 167.025 123.573 167.025C118.367 167.025 114.146 171.247 114.146 176.456C114.146 181.665 118.367 185.888 123.573 185.888Z" fill="white"/>
</svg>
