<svg width="246" height="407" viewBox="0 0 246 407" fill="none" xmlns="http://www.w3.org/2000/svg">
<path d="M240.078 72.9561C237.316 70.3044 234.49 55.5168 230.963 54.0155C233.599 59.845 231.685 61.3883 231.671 67.786C231.704 71.4188 231.28 75.0413 230.409 78.5681H170.661V31.9183C170.661 27.7267 171.486 23.5761 173.089 19.7035C174.692 15.831 177.042 12.3123 180.005 9.34837C182.967 6.38446 186.485 4.03337 190.355 2.42937C194.226 0.825365 198.375 -0.000123498 202.565 1.38582e-08C204.164 0.0312288 205.753 0.263915 207.294 0.692609C212.429 2.07975 217.11 4.79357 220.866 8.56182C224.622 12.3301 227.322 17.0203 228.695 22.1619C233.25 38.8179 240.494 66.543 240.078 72.9561Z" fill="#2F2E41"/>
<path d="M174.166 130.344L174.196 93.9833L152.831 95.8933L160.371 118.826L156.842 176.468C155.131 176.852 153.568 177.726 152.345 178.984C151.121 180.241 150.29 181.828 149.952 183.549C149.614 185.271 149.784 187.055 150.442 188.681C151.1 190.308 152.216 191.708 153.655 192.711C155.095 193.714 156.795 194.277 158.548 194.33C160.301 194.383 162.032 193.925 163.529 193.011C165.027 192.097 166.226 190.767 166.981 189.183C167.735 187.599 168.013 185.829 167.78 184.09L174.166 130.344Z" fill="#FFB6B6"/>
<path d="M216.211 390.179L224.842 390.178L228.949 356.872H216.209L216.211 390.179Z" fill="#FFB6B6"/>
<path d="M213.288 385.919L226.932 385.104V390.953L239.904 399.915C240.545 400.358 241.027 400.994 241.281 401.73C241.535 402.467 241.547 403.265 241.315 404.009C241.084 404.752 240.62 405.403 239.993 405.864C239.366 406.326 238.608 406.575 237.829 406.575H221.585L218.785 400.79L217.692 406.575H211.567L213.288 385.919Z" fill="#2F2E41"/>
<path d="M166.304 390.179L174.936 390.178L179.041 356.872H166.303L166.304 390.179Z" fill="#FFB6B6"/>
<path d="M163.381 385.919L177.025 385.104V390.953L189.997 399.915C190.638 400.358 191.121 400.994 191.375 401.73C191.628 402.467 191.64 403.265 191.409 404.009C191.177 404.752 190.714 405.403 190.086 405.864C189.459 406.326 188.701 406.575 187.922 406.575H171.678L168.878 400.79L167.785 406.575H161.661L163.381 385.919Z" fill="#2F2E41"/>
<path d="M208.525 54.717L190.645 55.0678L178.023 68.3963L167.904 69.881C163.327 70.5527 159.119 72.7757 155.983 76.1786C152.848 79.5816 150.974 83.9581 150.677 88.5769L152.43 98.2101H162.948L169.032 133.951C166.666 139.983 166.505 144.744 171.362 146.614L186.437 175.024L230.963 155.032C233.221 151.148 233.945 147.247 231.636 143.454L234.819 88.7398H245.522C245.522 78.5066 242.062 69.8797 231.897 68.741C227.861 68.3039 223.804 68.0718 219.744 68.0455L208.525 54.717Z" fill="#E6E6E6"/>
<path d="M230.963 155.032C230.963 155.032 187.489 162.748 171.361 146.614C171.361 146.614 169.724 149.394 167.257 154.006C166.547 155.333 165.177 156.231 164.35 157.838C163.597 159.298 161.663 161.093 160.844 162.749C160.184 164.081 161.242 165.822 160.556 167.261C152.297 184.592 142.648 209.039 144.716 225.182C146.05 235.592 148.806 259.815 151.708 285.833C151.934 287.866 150.098 290.477 150.326 292.526C150.541 294.458 152.82 295.827 153.035 297.764C153.178 299.049 151.586 300.361 151.728 301.645C151.884 303.054 153.774 304.436 153.93 305.839C157.905 341.763 161.545 375.303 161.545 375.303H181.879L185.716 298.702L182.581 270.779L189.943 214.309L200.11 267.973L201.418 298.176L212.163 376.706H230.963V300.684L232.365 296.735L230.963 291.67L232.365 286.212L230.963 280.269V155.032Z" fill="#2F2E41"/>
<path d="M214.013 44.3436C211.243 48.0245 207.303 50.6519 202.841 51.7932C198.379 52.9345 193.662 52.5216 189.466 50.6225C185.27 48.7234 181.846 45.4513 179.757 41.3451C177.669 37.2389 177.04 32.5435 177.975 28.0321C178.91 23.5207 181.352 19.4624 184.901 16.5254C188.449 13.5885 192.892 11.9481 197.496 11.8744C202.101 11.8006 206.593 13.298 210.234 16.1198C213.874 18.9417 216.446 22.9198 217.524 27.3989C217.583 27.642 217.632 27.8836 217.68 28.1345C218.249 30.942 218.217 33.8386 217.585 36.6327C216.953 39.4269 215.735 42.055 214.013 44.3436Z" fill="#FFB6B6"/>
<path d="M209.787 32.7741C209.357 30.6152 208.269 28.6426 206.674 27.127C206.831 29.1958 206.544 31.2744 205.832 33.2231C200.502 33.6953 195.147 32.6342 190.399 30.1645C186.823 27.7374 182.272 27.9478 176.971 30.1645C176.971 27.585 177.478 25.0307 178.465 22.6475C179.452 20.2642 180.898 18.0988 182.721 16.2748C184.544 14.4508 186.709 13.004 189.091 12.017C191.473 11.03 194.026 10.5222 196.605 10.5225H200.11C205.317 10.5234 210.311 12.5932 213.992 16.2766C217.674 19.96 219.743 24.9554 219.744 30.1645C216.508 31.3256 213.176 32.1988 209.787 32.7741Z" fill="#2F2E41"/>
<path d="M56.4037 283.119C87.5547 283.119 112.807 257.855 112.807 226.69C112.807 195.526 87.5547 170.262 56.4037 170.262C25.2528 170.262 0 195.526 0 226.69C0 257.855 25.2528 283.119 56.4037 283.119Z" fill="#F0F0F0"/>
<path d="M201.097 210.539H53.1347C51.0335 210.534 49.0198 209.697 47.5339 208.21C46.048 206.724 45.2108 204.71 45.2051 202.607V130.479C45.2105 128.377 46.0475 126.363 47.5332 124.876C49.0189 123.39 51.0324 122.552 53.1336 122.546H201.096C203.197 122.552 205.211 123.389 206.697 124.875C208.183 126.362 209.02 128.376 209.026 130.478V202.606C209.02 204.708 208.183 206.723 206.698 208.21C205.212 209.696 203.199 210.534 201.097 210.539Z" fill="white"/>
<path d="M201.097 210.539H53.1347C51.0335 210.534 49.0198 209.697 47.5339 208.21C46.048 206.724 45.2108 204.71 45.2051 202.607V130.479C45.2105 128.377 46.0475 126.363 47.5332 124.876C49.0189 123.39 51.0324 122.552 53.1336 122.546H201.096C203.197 122.552 205.211 123.389 206.697 124.875C208.183 126.362 209.02 128.376 209.026 130.478V202.606C209.02 204.708 208.183 206.723 206.698 208.21C205.212 209.696 203.199 210.534 201.097 210.539ZM53.1347 124.759C51.6195 124.764 50.1675 125.368 49.0962 126.44C48.0249 127.512 47.4212 128.964 47.417 130.48V202.606C47.4214 204.122 48.0253 205.575 49.0969 206.647C50.1684 207.718 51.6205 208.322 53.1358 208.327H201.095C202.611 208.322 204.063 207.718 205.134 206.646C206.206 205.574 206.81 204.121 206.814 202.605V130.479C206.809 128.963 206.206 127.511 205.134 126.439C204.062 125.367 202.61 124.763 201.095 124.759L53.1347 124.759Z" fill="#3F3D56"/>
<path d="M135.046 199.88C105.864 199.88 75.4359 199.601 64.0828 199.42C62.5891 199.389 61.1666 198.776 60.119 197.71C59.0715 196.644 58.4818 195.211 58.4761 193.716V134.011C58.4766 133.475 58.6891 132.962 59.0669 132.583C59.4448 132.204 59.9572 131.99 60.4922 131.989H193.733C194.268 131.989 194.781 132.202 195.16 132.58C195.538 132.958 195.752 133.47 195.754 134.005V174.514C195.729 181.127 193.115 187.466 188.471 192.173C183.828 196.879 177.526 199.577 170.918 199.689C160.337 199.826 147.807 199.88 135.046 199.88Z" fill="#FCA311"/>
<path d="M185.824 170.793H65.4307C64.4226 170.79 63.4398 170.477 62.6158 169.896C61.7919 169.315 61.1667 168.494 60.8254 167.545L47.1986 129.299C46.936 128.561 46.8541 127.771 46.9599 126.995C47.0657 126.22 47.3561 125.481 47.8066 124.84C48.2571 124.2 48.8546 123.677 49.5489 123.316C50.2433 122.954 51.0142 122.765 51.7968 122.763L202.287 122.554C203.002 122.553 203.709 122.709 204.357 123.011C205.006 123.314 205.58 123.754 206.04 124.303C206.5 124.851 206.833 125.494 207.018 126.185C207.203 126.877 207.233 127.6 207.108 128.305L207.224 128.354L206.792 129.363L206.788 129.373L190.315 167.828C189.939 168.708 189.313 169.459 188.515 169.986C187.717 170.513 186.781 170.794 185.824 170.793ZM202.294 124.767L51.8011 124.976C51.3724 124.977 50.9501 125.081 50.5697 125.279C50.1893 125.477 49.862 125.763 49.6151 126.114C49.3683 126.464 49.2092 126.869 49.1513 127.294C49.0933 127.719 49.1381 128.152 49.2819 128.556L62.9082 166.8C63.0955 167.32 63.4382 167.77 63.8898 168.088C64.3413 168.407 64.8798 168.578 65.4322 168.58H185.824C186.348 168.58 186.86 168.427 187.297 168.138C187.734 167.849 188.076 167.439 188.281 166.957L204.755 128.501C204.93 128.093 205 127.649 204.961 127.207C204.922 126.766 204.773 126.341 204.529 125.971C204.285 125.601 203.953 125.297 203.563 125.087C203.173 124.877 202.737 124.767 202.294 124.767Z" fill="#3F3D56"/>
<path d="M126.891 179.118C132.097 179.118 136.318 174.895 136.318 169.687C136.318 164.478 132.097 160.255 126.891 160.255C121.684 160.255 117.463 164.478 117.463 169.687C117.463 174.895 121.684 179.118 126.891 179.118Z" fill="white"/>
<path d="M244.987 121.926L245.016 85.5653L223.652 87.4753L231.192 110.408L203.822 151.915C202.111 152.3 200.548 153.174 199.325 154.431C198.101 155.689 197.27 157.275 196.932 158.997C196.594 160.719 196.764 162.502 197.422 164.129C198.08 165.756 199.196 167.156 200.635 168.159C202.075 169.162 203.775 169.724 205.528 169.777C207.281 169.83 209.012 169.372 210.509 168.458C212.006 167.544 213.206 166.214 213.96 164.63C214.715 163.046 214.993 161.276 214.76 159.537L244.987 121.926Z" fill="#FFB6B6"/>
</svg>
