<svg width="217" height="178" viewBox="0 0 217 178" fill="none" xmlns="http://www.w3.org/2000/svg">
<path d="M159.689 177.706C190.84 177.706 216.093 152.442 216.093 121.278C216.093 90.1129 190.84 64.8489 159.689 64.8489C128.538 64.8489 103.286 90.1129 103.286 121.278C103.286 152.442 128.538 177.706 159.689 177.706Z" fill="#F0F0F0"/>
<path d="M135.502 110.346L110.32 85.4731C109.094 84.2527 107.639 83.2863 106.039 82.6294C104.439 81.9724 102.726 81.6379 100.996 81.6448H100.908C99.1655 81.6498 97.4414 82.0005 95.8354 82.6766C94.2293 83.3528 92.7733 84.3409 91.5515 85.5837C85.9207 91.2847 82.7183 98.9475 82.6172 106.962C82.5162 114.976 85.5244 122.717 91.0096 128.558C91.2751 128.846 91.5515 129.122 91.828 129.399C93.3596 130.922 95.0503 132.276 96.8712 133.437C101.85 136.656 107.655 138.358 113.582 138.339H113.77C117.839 138.325 121.864 137.504 125.613 135.924C129.362 134.344 132.761 132.036 135.613 129.133C138.084 126.625 139.46 123.239 139.439 119.717C139.419 116.195 138.003 112.825 135.502 110.346ZM134.042 127.573C129.367 132.286 123.211 135.241 116.611 135.943C110.011 136.644 103.372 135.048 97.8113 131.424C96.2207 130.371 94.7355 129.166 93.3764 127.828C87.9502 122.466 84.8751 115.168 84.8274 107.538C84.7797 99.9088 87.7634 92.5727 93.122 87.1438C94.1406 86.1053 95.3555 85.28 96.696 84.7158C98.0365 84.1516 99.4758 83.8599 100.93 83.8576H100.996C102.436 83.8526 103.863 84.1314 105.195 84.6782C106.527 85.2249 107.739 86.0289 108.76 87.0442L133.943 111.928C136.028 113.991 137.209 116.797 137.228 119.73C137.246 122.663 136.101 125.484 134.042 127.573Z" fill="#3F3D56"/>
<path d="M52.8762 28.7123L27.6936 3.82834C25.2149 1.36794 21.8622 -0.00875481 18.3704 4.18983e-05H18.293C16.5483 0.00706333 14.8221 0.359721 13.2144 1.03767C11.6066 1.71562 10.1489 2.70545 8.92554 3.94999C4.27058 8.67969 1.25227 14.7767 0.31287 21.3474C-0.626529 27.9182 0.562409 34.6172 3.70546 40.4627L3.71653 40.4738C5.01316 42.8647 6.62366 45.0714 8.50527 47.035C8.71541 47.2784 8.95872 47.5218 9.20203 47.7653C14.985 53.5081 22.808 56.723 30.9562 56.7053H31.1553C35.2241 56.6883 39.2493 55.8651 42.9983 54.2832C46.7473 52.7012 50.1459 50.3919 52.9979 47.4886C54.2224 46.2478 55.1905 44.7779 55.8471 43.1627C56.5037 41.5475 56.8358 39.8188 56.8245 38.0752C56.8132 36.3316 56.4587 34.6074 55.7812 33.0009C55.1038 31.3943 54.1167 29.9371 52.8762 28.7123ZM51.4164 45.9397C48.7692 48.6338 45.6148 50.7767 42.1354 52.2447C38.656 53.7127 34.9204 54.4766 31.1442 54.4925H30.9562C25.2852 54.4903 19.7415 52.8106 15.0222 49.6646C10.3029 46.5186 6.61887 42.0468 4.43327 36.8116C2.24768 31.5764 1.65817 25.8115 2.7389 20.242C3.81963 14.6725 6.52227 9.54699 10.5071 5.51015C12.5689 3.42468 15.3736 2.24288 18.3056 2.22421C21.2375 2.20554 24.0571 3.3515 26.1453 5.41054L51.3279 30.2835C53.4113 32.3498 54.5905 35.1584 54.6071 38.0933C54.6237 41.0282 53.4763 43.8499 51.4164 45.9397Z" fill="#3F3D56"/>
<path d="M137.112 118.166L109.349 90.7331C107.528 88.9382 105.07 87.9392 102.515 87.955C99.9586 87.9709 97.5134 89.0004 95.7152 90.8177C93.4658 93.0912 91.6864 95.7859 90.4787 98.7478C89.271 101.71 88.6586 104.881 88.6767 108.08C88.6947 111.278 89.3428 114.442 90.5839 117.39C91.825 120.339 93.6348 123.013 95.9098 125.261C98.1847 127.509 100.88 129.286 103.842 130.491C106.804 131.696 109.974 132.305 113.172 132.283C116.369 132.262 119.531 131.61 122.476 130.365C125.422 129.12 128.093 127.306 130.337 125.028L137.112 118.166Z" fill="#FCA311"/>
<path d="M54.4908 36.5277L26.7278 9.09503C24.9072 7.30018 22.4494 6.30109 19.8934 6.31696C17.3375 6.33283 14.8923 7.36236 13.0942 9.17968C10.8447 11.4531 9.06534 14.1478 7.8576 17.1098C6.64987 20.0717 6.0375 23.2427 6.05556 26.4416C6.07363 29.6404 6.72173 32.8043 7.96284 35.7524C9.20395 38.7005 11.0138 41.3749 13.2887 43.6228C15.5636 45.8706 18.2591 47.6479 21.2211 48.8529C24.183 50.0578 27.3534 50.6669 30.5508 50.6453C33.7482 50.6237 36.9099 49.9718 39.8553 48.7268C42.8007 47.4819 45.4719 45.6683 47.7163 43.3899L54.4908 36.5277Z" fill="#FCA311"/>
<path d="M106.603 135.252L105.94 137C102.821 135.816 99.7982 134.629 96.8711 133.437C45.0238 112.271 20.2726 87.4978 3.71642 40.4738L3.70535 40.4628C2.92012 38.2499 2.15701 35.9854 1.41602 33.6693L3.16344 33.105C3.74773 35.3325 4.60195 37.4801 5.70713 39.5002C6.61401 42.0783 7.54674 44.5899 8.50523 47.0351C24.066 86.7233 47.0146 109.405 91.0095 128.558C93.2214 129.521 95.4887 130.476 97.8112 131.424C100.508 133.182 103.48 134.476 106.603 135.252Z" fill="#3F3D56"/>
<path d="M27.232 54.6913L25.6772 56.2661L83.1184 113.024L84.6731 111.45L27.232 54.6913Z" fill="#3F3D56"/>
</svg>
